<svg id="Capa_1" data-name="Capa 1" xmlns="http://www.w3.org/2000/svg" viewBox="0 0 114.57 122.39"><path d="M38,100.24A82.23,82.23,0,0,0,50.5,99.4c.84-.12,1.68-.26,2.52-.36.24,0,.3-.14.35-.35a13.31,13.31,0,0,1,2.94-5.94,12.18,12.18,0,0,1,.92-.85,1.91,1.91,0,0,1,1.85-.4,14.22,14.22,0,0,1,4.41,1.92c.56.34,1.11.71,1.66,1.07a.88.88,0,0,0,1.23-.13,1.42,1.42,0,0,0,.33-.55c.36-1.25,1-2.38,1.43-3.6a24,24,0,0,0,1.33-6.81.92.92,0,0,0-.3-.77,4.21,4.21,0,0,1-1.34-2.17,1.27,1.27,0,0,1,0-.34c.09-1-.55-2-2-2.09-.25,0-.51,0-.76-.06a1.11,1.11,0,0,1-1-1.29,2.28,2.28,0,0,1,.16-.74c.17-.33,0-.52-.21-.71a3,3,0,0,0-1.84-.63,2.66,2.66,0,0,1-1.57-.45c-.12-.09-.23,0-.33,0a2.07,2.07,0,0,1-1.71-.2,6.66,6.66,0,0,1-1.75-1.32,2.17,2.17,0,0,1-.5-2.12.48.48,0,0,1,.31-.34,37.37,37.37,0,0,0,10.67-6.81,23.43,23.43,0,0,0,4.58-5.67c.09-.15.17-.26,0-.45a7.7,7.7,0,0,1-1.6-8.47,1.38,1.38,0,0,0-.13-1.41,19.76,19.76,0,0,1-2.18-4.3,2.32,2.32,0,0,1,0-1.68A5.08,5.08,0,0,0,67,36.24a4.57,4.57,0,0,0-.68-.77,3.52,3.52,0,0,1-1-1.63,35,35,0,0,0-2.72-5.65A9.9,9.9,0,0,0,58,24.09a40.38,40.38,0,0,0-10-3A47.55,47.55,0,0,0,39,20.51a56.2,56.2,0,0,0-9.49,1.09,3.23,3.23,0,0,0-1.62.57,1.27,1.27,0,0,0-.32,2,.51.51,0,0,1,0,.57,3.58,3.58,0,0,1-1.06,1.38,12.25,12.25,0,0,1-2.05,1.45.52.52,0,0,1-.39.05,9.06,9.06,0,0,0-3.52.05,6.72,6.72,0,0,0-.89.32,3.55,3.55,0,0,1-1.89.34A1.2,1.2,0,0,1,16.66,27a7.26,7.26,0,0,1,.67-2.94,38.11,38.11,0,0,1,4.29-7.62c.82-1.2,1.7-2.37,2.59-3.53a2.55,2.55,0,0,0,.24-.39,23.81,23.81,0,0,1,2.08-3.18,21.32,21.32,0,0,1,1.92-2.53,10.86,10.86,0,0,1,4.4-2.7A103.62,103.62,0,0,1,43.74,1.07,48.07,48.07,0,0,1,53.23,0a65.77,65.77,0,0,1,8.06.34A62.77,62.77,0,0,1,73.64,2.92,55.09,55.09,0,0,1,86,8.5a57,57,0,0,1,8.08,6.29,63.26,63.26,0,0,1,10.76,12.45A63.46,63.46,0,0,1,111,40.12a62.85,62.85,0,0,1,3,11,51.53,51.53,0,0,1,.58,6.91,69.26,69.26,0,0,1-.35,9.55A65,65,0,0,1,110,85.36a3.37,3.37,0,0,1-.4.68,7.05,7.05,0,0,0-1.31,2.59,19.12,19.12,0,0,1-1.57,3.74,43.3,43.3,0,0,1-8.92,11.85c-1.63,1.55-3.12,3.23-4.81,4.72a53.22,53.22,0,0,1-13.28,8.54,54.6,54.6,0,0,1-13.56,4.11,56.07,56.07,0,0,1-11.2.76c-3-.1-6-.24-8.93-.61a57.38,57.38,0,0,1-30-13.38A56.3,56.3,0,0,1,4.77,94.89a68.27,68.27,0,0,1-4.7-9.46.76.76,0,0,1,0-.61c.29-.68.62-1.39,1.38-1.57.54-.13.68-.44.85-.85,1.13-2.75,2.29-5.49,3.28-8.3a5,5,0,0,0,.26-.91.57.57,0,0,1,.6-.56,10.4,10.4,0,0,1,3.15,0,1.69,1.69,0,0,1,.66.28.69.69,0,0,1,.3.8A65.72,65.72,0,0,0,9,80.63a25.27,25.27,0,0,0-.45,6,5.71,5.71,0,0,0,1.23,2.86,19.4,19.4,0,0,0,5.85,5.38,33,33,0,0,0,9.79,4,51.21,51.21,0,0,0,10.82,1.37C36.82,100.25,37.39,100.24,38,100.24ZM65,110.5a16.74,16.74,0,0,0,2.6-.83c.6-.19,1.23-.21,1.81-.42,1.39-.49,2.75-1,4.09-1.64a16.55,16.55,0,0,0,2.85-1.52,1.46,1.46,0,0,0,.65-.73c-2,.46-4,.84-6,0l.23,0A24.8,24.8,0,0,0,75.59,104a2.88,2.88,0,0,0,1-.62.46.46,0,0,0,.13-.55.54.54,0,0,0-.53-.35,14.56,14.56,0,0,1-2-.07,9.53,9.53,0,0,1-3.28-.77,1.43,1.43,0,0,1-.64-.48c.68,0,1.32,0,2,0a24.3,24.3,0,0,0,9.55-2.61,31.25,31.25,0,0,0,13-12,37.65,37.65,0,0,0,5.14-13.33.76.76,0,0,1,.13.47,14.08,14.08,0,0,1-.36,4.57,37.22,37.22,0,0,1-2.8,8c-.3.65-.62,1.29-1,2l.24-.16.46-.35a15.49,15.49,0,0,0,3.21-3.64,19.14,19.14,0,0,0,2.82-11.71,7.56,7.56,0,0,0-.37-2.4,23.69,23.69,0,0,0-1.9-3.72c-.45-.71-1-1.39-1.48-2.1a3.72,3.72,0,0,1,1.67.64,7.78,7.78,0,0,1,2.69,3.29.39.39,0,0,0,.5.26.42.42,0,0,0,.35-.47,1.93,1.93,0,0,0-.35-1A14.17,14.17,0,0,0,102,64.83c-.41-.46-.84-.9-1.26-1.35a4.52,4.52,0,0,1,1,.5A15.76,15.76,0,0,1,106,67.67c.09.12.16.38.3.34s.23-.32.24-.53a1.31,1.31,0,0,0,0-.34,3.13,3.13,0,0,0-.71-1.33,15.47,15.47,0,0,0-2.88-2.54l-.64-.46c.71.27,1.38.59,2.06.9a5,5,0,0,0,1.55.5c.43,0,.56-.15.34-.52a6,6,0,0,0-1.66-1.87A16.33,16.33,0,0,0,102,60.34a7.91,7.91,0,0,0-2.51-.84c-.22,0-.3-.06-.36-.31a3.7,3.7,0,0,0-2.22-2.89,1.29,1.29,0,0,1-.35-.22c-.09-.08-.1-.16,0-.26a1.44,1.44,0,0,1,1.31,0,10.5,10.5,0,0,1,2.68,2.91,5.5,5.5,0,0,0,.4-1.25,3.09,3.09,0,0,0-2.43-4,11.8,11.8,0,0,0-4.39-.23,14.55,14.55,0,0,0-6.31,2.59c-.06,0-.16.06-.09.19.81,0,1.62,0,2.43,0a21.52,21.52,0,0,1,5.24.68,4.14,4.14,0,0,1,2,1A1.36,1.36,0,0,1,97.7,59c0,.27-.15.37-.46.22a15.33,15.33,0,0,0-3.55-1.33,2.58,2.58,0,0,0-.83,0,.46.46,0,0,0-.41.48c0,.27.15.3.34.35s.38.12.56.18a1.69,1.69,0,0,1-.59,0,3.12,3.12,0,0,0-1.18,0c-.2,0-.39.14-.4.39s.13.33.31.42a5.36,5.36,0,0,1,1.31.85c.11.1.23.21.19.39s-.22.2-.37.22a3.55,3.55,0,0,1-.57.05,15.37,15.37,0,0,1-2.87-.31.63.63,0,0,1-.37-1,2.6,2.6,0,0,1,.33-.29,1.05,1.05,0,0,1-.77-.74,2.67,2.67,0,0,1-.27-.9c0-.3-.18-.39-.45-.44a35.27,35.27,0,0,1-4.07-.93,5.16,5.16,0,0,1-1.76-.78,14.94,14.94,0,0,1,3.94-2.46,2.09,2.09,0,0,1,1.36-.17l-.29.14a8.42,8.42,0,0,0-2.16,1.47,1,1,0,0,0-.37.74c2.08-.65,4.11-1.32,6.1-2.13a11.49,11.49,0,0,0,2.41-1.19c.16-.12.37-.24.31-.48s-.29-.23-.47-.27a12.88,12.88,0,0,1-2.85-.81,4.49,4.49,0,0,1-1.36-.84l5.32.54a.64.64,0,0,1,.43.2,4.32,4.32,0,0,0,1.11.79A1.84,1.84,0,0,0,97.76,51a4.6,4.6,0,0,0,1.16-4.18,6.85,6.85,0,0,0-7.33-5.37A8.1,8.1,0,0,0,87,43.16a17.23,17.23,0,0,0-4.58,5.39,7.94,7.94,0,0,1-1,1.5,1.13,1.13,0,0,1-1.35.37c-.28-.09-.29-.16-.2-.4a39.65,39.65,0,0,1,2.12-4.47c.59-1,1.32-2,1.94-3a38.49,38.49,0,0,1,2.37-3.64,2.57,2.57,0,0,0,.7-2.1.7.7,0,0,1,0-.12l.22.05a3.88,3.88,0,0,0,1.34.25c.17,0,.34-.05.4-.24s-.12-.25-.24-.33l-1.55-1.05c.18-.17.35-.3.49-.46s.24-.14.39,0a2,2,0,0,0,1.6.49c.79-.19,1.16.21,1.64.73,1.08,1.19,2.29,2.21,4.11,1.66.23-.07.5-.08.58-.35s-.09-.45-.26-.63a6,6,0,0,0-1.21-.92,35.32,35.32,0,0,0-4-2.1,1.19,1.19,0,0,1-.51-.43c-1.36-1.94-2.75-3.85-4.22-5.7-.57-.72-1.16-1.42-1.76-2.15.16,0,.22.11.31.18,1.18.94,2.35,1.9,3.62,2.72a4,4,0,0,0,1.08.56c.27.08.38,0,.31-.31a1.29,1.29,0,0,0-.4-.68c-.46-.41-.91-.84-1.37-1.27l-9.2-8.46c-.1-.09-.28-.17-.16-.4l.39.3c2.45,1.82,4.9,3.62,7.48,5.25a10.2,10.2,0,0,0,2.21,1.18c.14,0,.31.14.41,0s0-.29-.08-.42a1.62,1.62,0,0,0-.18-.19c-3.1-2.66-6.23-5.28-9.54-7.66-.78-.55-1.58-1.08-2.39-1.59a1.15,1.15,0,0,1,.33.09A57.37,57.37,0,0,1,85.38,19,54.82,54.82,0,0,1,99.05,30.29c.77.89,1.5,1.82,2.2,2.77a.88.88,0,0,0,1,.33c.38-.23.19-.57.1-.86a5.25,5.25,0,0,0-.54-1.12,36.19,36.19,0,0,0-4-5.32,58.41,58.41,0,0,0-8.3-7.73c-.09-.08-.25-.12-.25-.27a2.59,2.59,0,0,0-.44-1.24L89,17a61.07,61.07,0,0,1,10.34,8.5,25.35,25.35,0,0,1,4.9,6.8.42.42,0,0,0,.33.27c.5.08.73-.13.66-.64a4.13,4.13,0,0,0-.67-1.64,42.64,42.64,0,0,0-6.31-8.14A61,61,0,0,0,82.47,10.78,64.64,64.64,0,0,0,66.55,5.2a68,68,0,0,0-13.5-1.45c-2.62,0-5.23.1-7.84.34a12.28,12.28,0,0,0-3.63.78,36.27,36.27,0,0,0-7.89,4.84,7.59,7.59,0,0,0-2.2,2.45c-.25.48-.4.58-.92.55A.57.57,0,0,1,30,12a2.46,2.46,0,0,1,.24-.84,15.61,15.61,0,0,1,1.57-2.52.48.48,0,0,1,.32-.17,13.69,13.69,0,0,0,2.08-.59,4.13,4.13,0,0,0,1.39-.77.87.87,0,0,0,.31-.63c0-.24-.08-.39-.37-.31-.52.13-1,.22-1.56.36A9.53,9.53,0,0,0,30.8,7.91a2.84,2.84,0,0,0-1.34,2.18,4.66,4.66,0,0,1-1.79,3.45,25.41,25.41,0,0,0-3.06,2.8,16.51,16.51,0,0,0-3.78,6.11,6.71,6.71,0,0,0-.36,1.72,11.41,11.41,0,0,1,2.35-1.89,28.43,28.43,0,0,1,9.62-3.63,46.78,46.78,0,0,1,6.87-.88c2.18-.13,4.37-.13,6.55-.07a31.32,31.32,0,0,0,4.22.12,23.52,23.52,0,0,1,6.49.32,45.73,45.73,0,0,1,13.29,4.57,73.51,73.51,0,0,1,13.63,9.15c.68.56,1.34,1.13,2,1.7a1.16,1.16,0,0,1-.5-.19c-2.34-1.35-4.69-2.69-7.11-3.88a12,12,0,0,0-2.32-.95c-.12,0-.27-.08-.36,0s0,.27.08.38a2.87,2.87,0,0,0,1,.88,31.76,31.76,0,0,1,6,4.07,8.22,8.22,0,0,1,.61.57,3.26,3.26,0,0,1,.56.71c-.15-.07-.22-.12-.3-.16a52.67,52.67,0,0,0-5.33-2.76,4,4,0,0,0-1.17-.35c-.34,0-.44.12-.29.43a2.31,2.31,0,0,0,.27.42,12.86,12.86,0,0,0,1.43,1.52L79.87,36a.38.38,0,0,1-.24,0c-1.23-.48-2.46-.94-3.73-1.3a8.62,8.62,0,0,0-2.13-.4c-.26,0-.56,0-.71.26s0,.49.16.71a7.1,7.1,0,0,0,1.21,1.36l1.51,1.36c-.27-.08-.52-.2-.78-.3a9.09,9.09,0,0,0-3.39-.91c-1.16,0-1.65.6-1.52,1.75a5.43,5.43,0,0,1-.67,3.23.47.47,0,0,0,0,.51A11.92,11.92,0,0,0,72,46.06a2.61,2.61,0,0,1,.53.79,4.28,4.28,0,0,1,0,3.33,1.33,1.33,0,0,0-.13.52,12.69,12.69,0,0,0,.26,2.22,8.4,8.4,0,0,0,1.86,4,.41.41,0,0,1,.08.55,22.37,22.37,0,0,1-2.1,3.4,27,27,0,0,1-12,9.16,3.83,3.83,0,0,0-1.22.75c-.45.42-.38.79.18,1a5.82,5.82,0,0,0,1.75.32c.73,0,1.45,0,2.17.11a17.75,17.75,0,0,0,5.54,0,9.75,9.75,0,0,0,2.29-.81c.1-.06.28-.1.25-.24s-.21-.1-.33-.13-.28,0-.41,0a1.65,1.65,0,0,1-1.17-.53l.73-.15a8.86,8.86,0,0,0,4.24-1.82.41.41,0,0,1,.28-.09,35.62,35.62,0,0,1,4.38-.15,9.74,9.74,0,0,1,2.93.45,1.31,1.31,0,0,1,.81.65.54.54,0,0,1-.56.81,2.58,2.58,0,0,1-1.4-.64.91.91,0,0,0-.36-.2,9.31,9.31,0,0,0-3.41,0,4.43,4.43,0,0,0-2.14,1,1,1,0,0,0-.36,1.09c.16.42.59.38,1,.39a.58.58,0,0,0,.19,0,9.46,9.46,0,0,0,2.35-.61c.3-.11.34,0,.33.26a.63.63,0,0,1-.21.4,2.12,2.12,0,0,1-.83.52,16.16,16.16,0,0,1-5,.91,1.93,1.93,0,0,0-1.55,1c-.19.3-.08.49.28.58a3.48,3.48,0,0,0,1.07,0A11,11,0,0,0,70.9,76c-.14.14-.37.3-.26.51s.34.1.52.08c.45,0,.86-.21,1.31-.23a15.73,15.73,0,0,0,3.12-.5A35.07,35.07,0,0,0,89.5,68.49a2.09,2.09,0,0,0,.5-.61c.09-.15.19-.3.09-.47s-.31-.15-.48-.13a3.64,3.64,0,0,0-.67.16.64.64,0,0,1-.64-.1c-.23-.14-.24-.3,0-.41a3,3,0,0,1,.66-.2,34.61,34.61,0,0,1,4.55-.38,1,1,0,0,1,.33.06c.85.28,1.26,0,1.26-.93a1.21,1.21,0,0,0,0-.19c0-.24.07-.27.27-.24a7.56,7.56,0,0,1,1.33.31A5.08,5.08,0,0,1,100.35,69a3.05,3.05,0,0,1,.1,1.26,13.47,13.47,0,0,0-2-2.7,4.55,4.55,0,0,0-1.82-1.27c-.2-.06-.41-.16-.58.09a.57.57,0,0,0,0,.71,2,2,0,0,0,.71.62,5.25,5.25,0,0,1,1.61,1.43,3.38,3.38,0,0,1,.76,2c-.22-.2-.37-.36-.55-.5-.66-.54-1.12-.37-1.27.47a.86.86,0,0,0,0,.23c0,.43,0,.86-.09,1.29A31.46,31.46,0,0,1,93.81,84,22.43,22.43,0,0,1,83.22,94.24a25.67,25.67,0,0,1-7.64,2.1,11.73,11.73,0,0,1-2.22.14,2.85,2.85,0,0,1,.5-.14A38.45,38.45,0,0,0,83.29,93a14.35,14.35,0,0,0,4.79-3.82,6.79,6.79,0,0,0,1.11-2.1,9.79,9.79,0,0,1-2.91,2.11c.36-.53.75-1,1.14-1.53a57.25,57.25,0,0,0,3.73-5.29,2.25,2.25,0,0,0,.31-.69c.05-.25-.06-.32-.27-.22a2.45,2.45,0,0,0-1,.74,52.43,52.43,0,0,1-4.47,5.3A35.29,35.29,0,0,1,79.2,93,14.33,14.33,0,0,1,72,95.49a6.16,6.16,0,0,1-1.61-.14l.42-.16a9.29,9.29,0,0,0,2-1c.16-.12.35-.25.31-.48s-.27-.29-.46-.35a4.26,4.26,0,0,0-1.07-.16c0-.15.13-.17.21-.22l2.19-1.46a.49.49,0,0,0,.29-.54c-.06-.44,0-.88-.09-1.33a17.82,17.82,0,0,0-.68-3.89,2.67,2.67,0,0,0-.62-1.14c0,.09-.09.15-.12.22-1,2-2,4.09-2.89,6.2a21.3,21.3,0,0,0-1.37,4.18.88.88,0,0,0,.29.94,8.8,8.8,0,0,0,8.38,2,14.74,14.74,0,0,0,2.49-.88.71.71,0,0,1-.34.86,9.38,9.38,0,0,1-5.9,1.79,15.41,15.41,0,0,1-6.66-1.8,30.91,30.91,0,0,1-5.89-3.91c-.13-.11-.23-.26-.46-.19a4.86,4.86,0,0,0-1.61.84,2.17,2.17,0,0,0-.68,2.51,5,5,0,0,0,1.32,2,10.22,10.22,0,0,0,4.69,2.23,23.88,23.88,0,0,0,3.85.59,3.44,3.44,0,0,1-.45,0,25.53,25.53,0,0,1-5.65-.48,9.1,9.1,0,0,1-4.42-2c-.15-.14-.27-.07-.42,0a66.31,66.31,0,0,1-18.68,2.56,51.7,51.7,0,0,1-7.25-.55A38.22,38.22,0,0,1,19,98,31.54,31.54,0,0,1,7.28,87.61a2.58,2.58,0,0,1-.49-2.06c.4-2.37.71-4.75,1.06-7.12.13-.92.27-1.84.4-2.76,0-.09.09-.27-.05-.29a2.11,2.11,0,0,0-.83,0c-.18,0-.12.34-.15.52a76.21,76.21,0,0,1-2.09,9.54,10.84,10.84,0,0,1-1.45,3.41.67.67,0,0,0-.06.83,51.88,51.88,0,0,0,4.26,6.85A48.17,48.17,0,0,0,18,106.8a60.23,60.23,0,0,0,10.35,5.77,71.41,71.41,0,0,0,15.55,5.19,61.11,61.11,0,0,0,10.53,1.3,48.67,48.67,0,0,0,10.29-.74,41.87,41.87,0,0,0,11-3.6A43.84,43.84,0,0,0,89,104.58c.54-.6,1.07-1.23,1.61-1.84a.58.58,0,0,0-.32.09,73.77,73.77,0,0,1-7,3.43,88.06,88.06,0,0,1-17.61,5.46,71.66,71.66,0,0,1-11.76,1.33,59.68,59.68,0,0,1-10.6-.66,51.57,51.57,0,0,1-11.7-3.24,52.55,52.55,0,0,1-18-12.39,1.76,1.76,0,0,1-.49-.6c.47.35.89.66,1.32,1a42.44,42.44,0,0,0,10.89,5.25,59.63,59.63,0,0,0,14.12,2.75,75.82,75.82,0,0,0,11.77,0l2.05-.15a16.54,16.54,0,0,1-4.33,2.2c.6.07,1.19.12,1.78.13A18.13,18.13,0,0,0,55.2,107a11.66,11.66,0,0,1-4.28,1.86,1.42,1.42,0,0,0,.68.3,10,10,0,0,0,3.18.2,38.28,38.28,0,0,0,7.65-1.46c1.2-.34,2.39-.72,3.6-1.08-.46,1-1.59,1.86-4.72,3.5A8.23,8.23,0,0,0,65,110.5ZM82,84.83a12,12,0,0,0-3.22,2.29,5.89,5.89,0,0,0-1.87,4.19c0,.35.11.4.43.32a7.78,7.78,0,0,0,3.21-1.82,36.45,36.45,0,0,0,5.6-6.17c.19-.25.38-.51.56-.77A2.71,2.71,0,0,1,85,83a.59.59,0,0,0-.43.09,4.43,4.43,0,0,1-1.09.43A1.2,1.2,0,0,1,84,83a.62.62,0,0,0,.26-.93c-.08-.15-.19-.38,0-.5s.34.1.49.19a.15.15,0,0,1,.06,0c.16.24.35.2.58.09A31.91,31.91,0,0,0,89.9,79a.92.92,0,0,0,.49-.92c0-.47.21-.6.61-.37.18.11.25,0,.36-.08.32-.41.66-.81,1-1.22a16.33,16.33,0,0,0,2.27-3.64,2.51,2.51,0,0,0,.21-1.15c0-.3-.15-.38-.45-.33a4.44,4.44,0,0,0-2.12,1.06,7.85,7.85,0,0,0-1.74,2.29A2.46,2.46,0,0,0,87.8,74a9.13,9.13,0,0,0-3,1.61.94.94,0,0,0-.47.72.67.67,0,0,1-1,.51,8.08,8.08,0,0,0-2.16-.72c-2.64-.51-4.9,0-6.43,2.45-.09.13-.14.1-.23,0a8.15,8.15,0,0,0-3.29-1.12c-.27,0-.29.06-.25.28a16.16,16.16,0,0,0,.57,2.59,8.69,8.69,0,0,0,2.77,4.41.54.54,0,0,1,.1.16c.18.4.38.46.78.26a4.1,4.1,0,0,0,.81-.63c.08-.07.13-.19.25,0a2.25,2.25,0,0,0,2.38.83,7.84,7.84,0,0,0,2.61-.89,1.33,1.33,0,0,1,1.36.07Zm14.82-44.2a7.57,7.57,0,0,1,2.77,2.82,12.88,12.88,0,0,1,1.47,3.65c0,.12,0,.28.17.34a1.18,1.18,0,0,0,1.49-.93,3.12,3.12,0,0,0-.21-1.42A18.21,18.21,0,0,0,100.21,41a.41.41,0,0,0-.35-.18l-3.14-.28A.64.64,0,0,0,96.85,40.63ZM87,40.4A25.32,25.32,0,0,1,91.41,40a1.46,1.46,0,0,1,.79.2,2.32,2.32,0,0,0,1.17.41c.23,0,.4-.08.44-.32a.86.86,0,0,0-.33-1,4.24,4.24,0,0,0-.65-.38,23,23,0,0,0-3.62-1.23.74.74,0,0,0-.55.07,6.68,6.68,0,0,0-2.82,3A3.9,3.9,0,0,1,87,40.4Zm2.73,17.84a.57.57,0,0,0-.57.63.57.57,0,0,0,.59.56.6.6,0,0,0,.6-.61A.6.6,0,0,0,89.71,58.24ZM17,103a2.72,2.72,0,0,0,.24.24,64.81,64.81,0,0,0,5.54,4.09,54.06,54.06,0,0,0,29,9.08,55.74,55.74,0,0,0,8.36-.47,57.88,57.88,0,0,0,12.11-2.88c1.11-.4,2.21-.83,3.3-1.35-.14-.06-.23,0-.32,0a78.81,78.81,0,0,1-12.7,2.77,66.8,66.8,0,0,1-11.4.55,61.16,61.16,0,0,1-12.56-1.79,58.73,58.73,0,0,1-18.92-8.46c-.88-.6-1.74-1.23-2.61-1.84ZM52,15.6l.3.05a68.47,68.47,0,0,1,9.21,2.6,196.78,196.78,0,0,1,19.9,8.34c.07,0,.15.15.29,0A65.42,65.42,0,0,0,52.15,15.51C52.07,15.49,52,15.45,52,15.6ZM76.27,55.19c-.56-.71-.55-.71-.09-1.49a13.4,13.4,0,0,0,2-5.41,4.12,4.12,0,0,0-.22-2c-.08.27-.13.49-.2.7-.9,2.63-2.07,5.15-3.21,7.67a.71.71,0,0,0,.06.78,5,5,0,0,0,.41.5,7.55,7.55,0,0,0,1.7,1.22,16.63,16.63,0,0,0,2.53,1.18A17.59,17.59,0,0,1,76.27,55.19ZM62.08,15.37c.62.2,1.26.38,1.88.59a97.49,97.49,0,0,1,13.22,6L80,23.46a13.34,13.34,0,0,0-2.25-1.93,33.68,33.68,0,0,0-8.25-4.17,59.18,59.18,0,0,0-7.16-2.07C62.21,15.28,62.09,15.18,62.08,15.37Zm-1.24-.31,1.24.31c0-.15.16,0,.22-.08A4,4,0,0,0,60.84,15.06Zm-10,.38L52,15.6c0-.11.11,0,.15-.09A2.85,2.85,0,0,0,50.85,15.44ZM16.77,102.7l-.44-.36A.49.49,0,0,0,16.77,102.7Zm.28.28a.43.43,0,0,0-.29-.22A.46.46,0,0,0,17,103ZM50.16,15.34a.36.36,0,0,0,.27,0A.26.26,0,0,0,50.16,15.34Z"/></svg>